<svg width="1724" height="715" viewBox="0 0 1724 715" fill="none" xmlns="http://www.w3.org/2000/svg">
<path d="M1724 0H0V715H1724V0Z" fill="white"/>
<mask id="mask0_1192_240" style="mask-type:alpha" maskUnits="userSpaceOnUse" x="0" y="0" width="1724" height="715">
<path d="M1724 0H0V715H1724V0Z" fill="#C4C4C4"/>
</mask>
<g mask="url(#mask0_1192_240)">
<g filter="url(#filter0_f_1192_240)">
<path d="M2323.81 119.589L1604.88 410.65L1566.57 126.549L1396.56 54.416L1051.16 251.832L815.907 889.637L17.9585 776.376" stroke="url(#paint0_linear_1192_240)" stroke-width="160" stroke-linejoin="round"/>
</g>
<g opacity="0.8" filter="url(#filter1_f_1192_240)">
<path d="M2056.83 455.575L1524.66 746.637L1453.43 625.783L1218.77 530.239L1069.72 630.845L863.796 544.792L790.765 614.394L587.836 590.35L174.794 916.845" stroke="url(#paint1_linear_1192_240)" stroke-width="240" stroke-linejoin="round"/>
</g>
<g filter="url(#filter2_if_1192_240)">
<path d="M1809.04 927.217C1681.63 1139.71 1415.38 1202.79 1214.34 1068.11C1013.32 933.434 953.642 651.999 1081.05 439.509C1208.46 227.018 1474.71 163.937 1675.75 298.614C1876.78 433.291 1936.45 714.727 1809.04 927.217Z" fill="url(#paint2_linear_1192_240)" fill-opacity="0.8"/>
</g>
<g filter="url(#filter3_f_1192_240)">
<path d="M1727.59 830.159C1990.09 830.159 2202.89 694.181 2202.89 526.442C2202.89 358.704 1990.09 222.726 1727.59 222.726C1465.09 222.726 1252.29 358.704 1252.29 526.442C1252.29 694.181 1465.09 830.159 1727.59 830.159Z" fill="white" fill-opacity="0.2"/>
</g>
<g filter="url(#filter4_f_1192_240)">
<path d="M1082.29 442.921C1743.5 442.921 2279.51 262.182 2279.51 39.2303C2279.51 -183.722 1743.5 -364.46 1082.29 -364.46C421.082 -364.46 -114.933 -183.722 -114.933 39.2303C-114.933 262.182 421.082 442.921 1082.29 442.921Z" fill="white"/>
</g>
<g filter="url(#filter5_f_1192_240)">
<path d="M215.5 613.761C577.842 613.761 871.578 476.366 871.578 306.881C871.578 137.395 577.842 0 215.5 0C-146.842 0 -440.578 137.395 -440.578 306.881C-440.578 476.366 -146.842 613.761 215.5 613.761Z" fill="white"/>
</g>
</g>
<defs>
<filter id="filter0_f_1192_240" x="-113.284" y="-145.584" width="2587.11" height="1235.23" filterUnits="userSpaceOnUse" color-interpolation-filters="sRGB">
<feFlood flood-opacity="0" result="BackgroundImageFix"/>
<feBlend mode="normal" in="SourceGraphic" in2="BackgroundImageFix" result="shape"/>
<feGaussianBlur stdDeviation="60" result="effect1_foregroundBlur_1192_240"/>
</filter>
<filter id="filter1_f_1192_240" x="-19.6206" y="230.294" width="2254.03" height="900.691" filterUnits="userSpaceOnUse" color-interpolation-filters="sRGB">
<feFlood flood-opacity="0" result="BackgroundImageFix"/>
<feBlend mode="normal" in="SourceGraphic" in2="BackgroundImageFix" result="shape"/>
<feGaussianBlur stdDeviation="60" result="effect1_foregroundBlur_1192_240"/>
</filter>
<filter id="filter2_if_1192_240" x="894.047" y="107.787" width="1102" height="1151.15" filterUnits="userSpaceOnUse" color-interpolation-filters="sRGB">
<feFlood flood-opacity="0" result="BackgroundImageFix"/>
<feBlend mode="normal" in="SourceGraphic" in2="BackgroundImageFix" result="shape"/>
<feColorMatrix in="SourceAlpha" type="matrix" values="0 0 0 0 0 0 0 0 0 0 0 0 0 0 0 0 0 0 127 0" result="hardAlpha"/>
<feOffset dy="3"/>
<feGaussianBlur stdDeviation="5"/>
<feComposite in2="hardAlpha" operator="arithmetic" k2="-1" k3="1"/>
<feColorMatrix type="matrix" values="0 0 0 0 1 0 0 0 0 1 0 0 0 0 1 0 0 0 0.25 0"/>
<feBlend mode="normal" in2="shape" result="effect1_innerShadow_1192_240"/>
<feGaussianBlur stdDeviation="60" result="effect2_foregroundBlur_1192_240"/>
</filter>
<filter id="filter3_f_1192_240" x="1012.29" y="-17.2744" width="1430.59" height="1087.43" filterUnits="userSpaceOnUse" color-interpolation-filters="sRGB">
<feFlood flood-opacity="0" result="BackgroundImageFix"/>
<feBlend mode="normal" in="SourceGraphic" in2="BackgroundImageFix" result="shape"/>
<feGaussianBlur stdDeviation="120" result="effect1_foregroundBlur_1192_240"/>
</filter>
<filter id="filter4_f_1192_240" x="-378.933" y="-628.46" width="2922.44" height="1335.38" filterUnits="userSpaceOnUse" color-interpolation-filters="sRGB">
<feFlood flood-opacity="0" result="BackgroundImageFix"/>
<feBlend mode="normal" in="SourceGraphic" in2="BackgroundImageFix" result="shape"/>
<feGaussianBlur stdDeviation="132" result="effect1_foregroundBlur_1192_240"/>
</filter>
<filter id="filter5_f_1192_240" x="-840.578" y="-400" width="2112.16" height="1413.76" filterUnits="userSpaceOnUse" color-interpolation-filters="sRGB">
<feFlood flood-opacity="0" result="BackgroundImageFix"/>
<feBlend mode="normal" in="SourceGraphic" in2="BackgroundImageFix" result="shape"/>
<feGaussianBlur stdDeviation="200" result="effect1_foregroundBlur_1192_240"/>
</filter>
<linearGradient id="paint0_linear_1192_240" x1="1465.4" y1="-250.566" x2="350.235" y2="827.781" gradientUnits="userSpaceOnUse">
<stop stop-color="#5CF935" stop-opacity="0.9"/>
<stop offset="0.430671" stop-color="#65FF3F"/>
<stop offset="0.699594" stop-color="#DE421F" stop-opacity="0.1"/>
<stop offset="1" stop-color="#F99FBF" stop-opacity="0"/>
</linearGradient>
<linearGradient id="paint1_linear_1192_240" x1="1768.3" y1="351.804" x2="177.726" y2="793.241" gradientUnits="userSpaceOnUse">
<stop stop-color="#D5C5F1"/>
<stop offset="0.463401" stop-color="#F55872" stop-opacity="0.06"/>
<stop offset="0.541326" stop-color="#F7EDFF"/>
<stop offset="0.637118" stop-color="#FFE0D9" stop-opacity="0.4"/>
<stop offset="1" stop-color="#C4D6FF" stop-opacity="0.5"/>
</linearGradient>
<linearGradient id="paint2_linear_1192_240" x1="1738.97" y1="268.916" x2="1036.98" y2="913.957" gradientUnits="userSpaceOnUse">
<stop offset="0.0227867" stop-color="#8590FF" stop-opacity="0.2"/>
<stop offset="0.50488" stop-color="#B59BFF" stop-opacity="0.3"/>
<stop offset="0.922209" stop-color="#FFE0D9" stop-opacity="0.4"/>
</linearGradient>
</defs>
</svg>
